<svg xmlns="http://www.w3.org/2000/svg" aria-hidden="true" style="position:absolute;width:0;height:0;overflow:hidden">
  <defs>
    <symbol id="icon-instagram" viewBox="0 0 32 32">
      <path d="M14.157.314h3.684c2.628.006 3.231.029 4.625.093 1.67.076 2.81.341 3.808.729 1.032.401 1.906.937 2.779 1.809s1.409 1.747 1.809 2.779c.388.998.653 2.138.729 3.808.074 1.617.093 2.171.094 6.054v.828c-.001 3.883-.021 4.437-.094 6.054-.076 1.67-.341 2.81-.729 3.808-.401 1.032-.937 1.906-1.809 2.779s-1.747 1.408-2.779 1.809c-.998.388-2.138.653-3.808.729-1.617.074-2.171.093-6.054.094h-.828c-3.883-.001-4.437-.021-6.054-.094-1.67-.076-2.81-.341-3.808-.729-1.032-.401-1.906-.937-2.779-1.809s-1.409-1.747-1.809-2.779c-.388-.998-.653-2.138-.729-3.808-.064-1.394-.087-1.998-.093-4.626v-3.684c.006-2.628.029-3.231.093-4.626.076-1.67.341-2.81.729-3.808.401-1.032.937-1.906 1.809-2.779S4.69 1.536 5.722 1.136C6.72.748 7.86.483 9.53.407 10.924.343 11.528.32 14.156.314zm2.993 2.825h-2.301c-3.149.003-3.7.023-5.188.091-1.53.07-2.36.325-2.913.54-.732.285-1.255.625-1.804 1.173s-.889 1.071-1.173 1.804c-.215.553-.47 1.383-.54 2.913-.068 1.489-.088 2.04-.091 5.188v2.301c.003 3.149.023 3.699.091 5.188.07 1.529.325 2.36.54 2.913.285.732.625 1.255 1.173 1.804s1.071.889 1.804 1.173c.553.215 1.383.47 2.913.54 1.654.075 2.15.091 6.339.091s4.685-.016 6.339-.091c1.529-.07 2.36-.325 2.913-.54.732-.285 1.255-.624 1.804-1.173s.889-1.072 1.174-1.804c.215-.553.47-1.383.54-2.913.075-1.654.091-2.15.091-6.339s-.016-4.685-.091-6.339c-.07-1.529-.325-2.36-.54-2.913-.285-.732-.625-1.255-1.174-1.804s-1.071-.889-1.804-1.173c-.553-.215-1.383-.47-2.913-.54-1.489-.068-2.04-.088-5.188-.091zm-1.151 5.017a7.844 7.844 0 1 1 0 15.688 7.844 7.844 0 0 1 0-15.688zm0 2.752a5.091 5.091 0 1 0 0 10.182 5.091 5.091 0 0 0 0-10.182zm8.497-5.367a1.961 1.961 0 1 1 0 3.922 1.961 1.961 0 0 1 0-3.922z"/>
    </symbol>
    <symbol id="icon-facebook" viewBox="0 0 32 32">
      <path d="M16 .314C7.336.314.314 7.337.314 16c0 7.829 5.736 14.319 13.236 15.496V20.533H9.566V16h3.984v-3.456c0-3.931 2.34-6.102 5.925-6.102 1.716 0 3.511.306 3.511.306v3.859H21.01c-1.95 0-2.557 1.209-2.557 2.45V16h4.35l-.695 4.533h-3.655v10.963C25.951 30.32 31.687 23.827 31.687 16c0-8.664-7.023-15.686-15.686-15.686z"/>
    </symbol>
    <symbol id="icon-razor" viewBox="0 0 32 32">
      <path stroke-linecap="round" stroke-linejoin="round" stroke-width="1.6" d="M27.333 9.2H4.666c-.736 0-1.333.597-1.333 1.333V21.2c0 .736.597 1.333 1.333 1.333h22.667c.736 0 1.333-.597 1.333-1.333V10.533c0-.736-.597-1.333-1.333-1.333zm-18 0v13.333M22.667 9.2v13.333M20 3.333h5.333m-22 4h25.333m-25.333 11.2h25.333M3.333 19.867v-8m25.334 8v-8m-22-8.534H12m8 19.2h5.333m-18.666 0H12m9.333 0a5.333 5.333 0 1 1-10.666 0"/>
      <path stroke-linecap="round" stroke-linejoin="round" stroke-width="1.6" d="M18.667 27.2 18 30.533V35.2m-4.667-8L14 30.533V35.2"/>
    </symbol>
    <symbol id="icon-scissors1" viewBox="0 0 32 32">
      <path stroke-linecap="round" stroke-linejoin="round" stroke-width="1.6" d="M8 12a4 4 0 1 0 0-8 4 4 0 0 0 0 8zm0 16a4 4 0 1 0 0-8 4 4 0 0 0 0 8zM26.667 5.333l-15.84 15.84m8.466-1.866 7.373 7.36m-15.839-15.84L16 16"/>
    </symbol>
    <symbol id="icon-straight-razor" viewBox="0 0 32 32">
      <path stroke-linecap="round" stroke-linejoin="round" stroke-width="1.6" d="M26.042 20.188 3.72 24.124a1.334 1.334 0 0 0-1.082 1.545l.232 1.313a1.334 1.334 0 0 0 1.545 1.082l22.322-3.936a1.334 1.334 0 0 0 1.082-1.545l-.232-1.313a1.334 1.334 0 0 0-1.545-1.082zm3.291 6.479L26.666 24M5.333 2.667 17.59 14.924l-2.828 2.828-8.485-8.485C4.392 7.382 4.391 6.439 4.391 5.496s.943-2.828.943-2.828zm0 0 18 18"/>
    </symbol>
    <symbol id="icon-barber-clippers" viewBox="0 0 32 32">
      <path stroke-linecap="round" stroke-linejoin="round" stroke-width="1.6" d="M6.667 11.2h18.667v6l-3.333 4.667v8s0 5.333-6 5.333-6-5.333-6-5.333v-8L6.668 17.2v-6zM10 8.533v4m4-4v4m4-4v4"/>
      <path stroke-linecap="round" stroke-linejoin="round" stroke-width="1.6" d="M18 26.533a2 2 0 1 0-4 0V29.2a2 2 0 1 0 4 0v-2.667zM6.667 17.2h18.667M22 8.533v4"/>
    </symbol>
    <symbol id="icon-menu" viewBox="0 0 41 32">
      <path d="M40.533 0H0v6.4h40.533V0zm0 12.8H0v6.4h40.533v-6.4zm0 12.8H0V32h40.533v-6.4z"/>
    </symbol>
    <symbol id="icon-phone" viewBox="0 0 32 32">
      <path stroke-linejoin="round" stroke-width="3.918" d="M10.283 2.274c.593 0 1.139.322 1.427.84l1.997 3.597c.261.471.274 1.041.033 1.523l-1.924 3.848s.558 2.866 2.891 5.2 5.19 2.881 5.19 2.881l3.847-1.924a1.634 1.634 0 0 1 1.524.033l3.608 2.006c.518.288.839.834.839 1.427v4.142c0 2.109-1.959 3.632-3.957 2.958-4.104-1.385-10.476-4.022-14.514-8.06S4.569 10.336 3.184 6.231c-.674-1.998.849-3.958 2.958-3.958h4.141z"/>
    </symbol>
    <symbol id="icon-scissors2" viewBox="0 0 32 32">
      <path d="m16.001 18.871-3.708 3.861c.58 1.424.666 3.014.244 4.497s-1.327 2.767-2.558 3.632c-1.232.865-2.714 1.257-4.192 1.108s-2.861-.828-3.912-1.922C.825 28.953.172 27.513.03 25.973s.234-3.083 1.064-4.366 2.063-2.225 3.487-2.664a6.16 6.16 0 0 1 4.318.254l3.709-3.861-9.073-9.444a3.35 3.35 0 0 1-.694-1.081 3.45 3.45 0 0 1 0-2.552c.161-.405.397-.772.694-1.081L4.668 0 16 11.803 27.331.001l1.133 1.178c.297.309.533.677.694 1.081a3.45 3.45 0 0 1 0 2.552 3.339 3.339 0 0 1-.694 1.081l-9.071 9.442 3.708 3.861c1.368-.604 2.894-.694 4.318-.254s2.657 1.382 3.487 2.664 1.207 2.826 1.064 4.366c-.142 1.54-.795 2.98-1.845 4.074s-2.433 1.773-3.912 1.922c-1.479.148-2.961-.243-4.192-1.108s-2.136-2.149-2.558-3.632a6.924 6.924 0 0 1 .244-4.497l-3.706-3.861zM6.4 28.668c.849 0 1.663-.351 2.263-.976s.937-1.473.937-2.357c0-.884-.337-1.732-.937-2.357s-1.414-.976-2.263-.976-1.663.351-2.263.976-.937 1.473-.937 2.357c0 .884.337 1.732.937 2.357s1.414.976 2.263.976zm19.202 0c.849 0 1.663-.351 2.263-.976s.937-1.473.937-2.357c0-.884-.337-1.732-.937-2.357s-1.414-.976-2.263-.976-1.663.351-2.263.976-.937 1.473-.937 2.357c0 .884.337 1.732.937 2.357s1.414.976 2.263.976z"/>
    </symbol>
  </defs>
</svg>
